<svg id="레이어_1" data-name="레이어 1" xmlns="http://www.w3.org/2000/svg" viewBox="0 0 260.11 41.71"><defs><style>.cls-1{fill:#fff;}</style></defs><path class="cls-1" d="M394.71,623a1.54,1.54,0,0,0-.29-.48,1.8,1.8,0,0,0-.46-.35,4.36,4.36,0,0,0-.61-.29l-.47-.19a2.07,2.07,0,0,1-.34-.15,1.81,1.81,0,0,1-.27-.18.88.88,0,0,1-.19-.24.78.78,0,0,1-.07-.31.76.76,0,0,1,.28-.63,1.42,1.42,0,0,1,.81-.21,3.28,3.28,0,0,1,.67.07l.53.15h0v0a3.2,3.2,0,0,0,.19-.72v0h0c-.19-.06-.41-.12-.65-.17a4.92,4.92,0,0,0-.78-.07,2.23,2.23,0,0,0-1.49.45,1.5,1.5,0,0,0-.54,1.23,1.62,1.62,0,0,0,.09.57,1.32,1.32,0,0,0,.23.42,1.69,1.69,0,0,0,.36.3,2.82,2.82,0,0,0,.46.23l.48.2.51.22a1.31,1.31,0,0,1,.35.22.83.83,0,0,1,.21.28,1.15,1.15,0,0,1,.07.4.91.91,0,0,1-.33.74,1.58,1.58,0,0,1-1,.28,3.1,3.1,0,0,1-.74-.08l-.58-.17h0l-.14.41a2.66,2.66,0,0,0-.07.39v0l.37.11.35.09.4,0,.48,0a2.56,2.56,0,0,0,1.7-.51,1.74,1.74,0,0,0,.62-1.4A2.06,2.06,0,0,0,394.71,623Z" transform="translate(-390.89 -583.85)"/><path class="cls-1" d="M399.45,624.67v0h-2.55v-2h2l0-.21V622l0-.21h-2v-1.69h2.49l0-.21v-.2a2.25,2.25,0,0,0,0-.38v0H396v6.16h3.48l0-.22v-.19A2.24,2.24,0,0,0,399.45,624.67Z" transform="translate(-390.89 -583.85)"/><path class="cls-1" d="M405.45,621.11a3.05,3.05,0,0,0-.48-1,2.17,2.17,0,0,0-.81-.66,2.82,2.82,0,0,0-2.32,0,2.17,2.17,0,0,0-.81.66,2.87,2.87,0,0,0-.48,1,5.12,5.12,0,0,0,0,2.54,2.87,2.87,0,0,0,.48,1,2.17,2.17,0,0,0,.81.66,2.92,2.92,0,0,0,2.32,0,2.17,2.17,0,0,0,.81-.66,3.05,3.05,0,0,0,.48-1,5.45,5.45,0,0,0,0-2.54ZM403,624.75a1.47,1.47,0,0,1-.72-.16,1.25,1.25,0,0,1-.5-.47,2.17,2.17,0,0,1-.31-.74,5,5,0,0,1,0-2,2.32,2.32,0,0,1,.31-.75,1.38,1.38,0,0,1,.5-.46,1.7,1.7,0,0,1,1.44,0,1.38,1.38,0,0,1,.5.46,2.11,2.11,0,0,1,.3.75,4.28,4.28,0,0,1,.11,1,4.37,4.37,0,0,1-.11,1,2,2,0,0,1-.3.74,1.25,1.25,0,0,1-.5.47A1.47,1.47,0,0,1,403,624.75Z" transform="translate(-390.89 -583.85)"/><path class="cls-1" d="M411.22,619.3a3.24,3.24,0,0,0-.88,0h0v3.49a5.44,5.44,0,0,1-.07.89,1.67,1.67,0,0,1-.22.6.89.89,0,0,1-.39.33,1.3,1.3,0,0,1-.59.11,1.39,1.39,0,0,1-.61-.11.89.89,0,0,1-.39-.33,1.67,1.67,0,0,1-.22-.6,5.57,5.57,0,0,1-.06-.89V619.3h0a2.9,2.9,0,0,0-.43,0,2.94,2.94,0,0,0-.44,0h0v3.64A4.57,4.57,0,0,0,407,624a2.05,2.05,0,0,0,.38.83,1.59,1.59,0,0,0,.68.51,3,3,0,0,0,2.05,0,1.65,1.65,0,0,0,.68-.51,2.05,2.05,0,0,0,.38-.83,4.6,4.6,0,0,0,.11-1.1V619.3Z" transform="translate(-390.89 -583.85)"/><path class="cls-1" d="M416.08,624.87l0-.23h-2.39v-5.33l-.24,0H413l-.23,0v6.16h3.31v0a2.34,2.34,0,0,0,0-.38Z" transform="translate(-390.89 -583.85)"/><path class="cls-1" d="M421.25,619.32h-4.32a2.29,2.29,0,0,0-.05.52,2.36,2.36,0,0,0,.05.54h1.52v5.05l.35,0h.61l.32,0h0v-5h1.52a3.1,3.1,0,0,0,.05-.54A3.05,3.05,0,0,0,421.25,619.32Z" transform="translate(-390.89 -583.85)"/><path class="cls-1" d="M426.08,624.37h-2.29v-1.58h1.77a2.89,2.89,0,0,0,0-1.07h-1.77v-1.3H426a3.1,3.1,0,0,0,.05-.54,3.05,3.05,0,0,0-.05-.52h-3.5v6.14h3.55v0a3.1,3.1,0,0,0,.05-.54A3.05,3.05,0,0,0,426.08,624.37Z" transform="translate(-390.89 -583.85)"/><path class="cls-1" d="M431.57,625.27a3.84,3.84,0,0,0-.1-.51,2.92,2.92,0,0,0-.19-.49v0h0a3.85,3.85,0,0,1-.53.14,3,3,0,0,1-.55,0c-1.15,0-1.74-.69-1.74-2.05a2.44,2.44,0,0,1,.43-1.56,1.53,1.53,0,0,1,1.24-.53,4,4,0,0,1,.54,0,4,4,0,0,1,.53.15h0l.19-.5a1.72,1.72,0,0,0,.11-.5h0a3.05,3.05,0,0,0-.75-.21,4.43,4.43,0,0,0-.75,0,3,3,0,0,0-1.24.24,2.51,2.51,0,0,0-.91.66,3,3,0,0,0-.57,1,4,4,0,0,0-.19,1.27,4.22,4.22,0,0,0,.18,1.26,3,3,0,0,0,.56,1,2.44,2.44,0,0,0,.92.66,3.13,3.13,0,0,0,1.27.24,5.94,5.94,0,0,0,.76,0,4.23,4.23,0,0,0,.8-.22h0Z" transform="translate(-390.89 -583.85)"/><path class="cls-1" d="M437.36,619.31a3.48,3.48,0,0,0-.63,0,3.31,3.31,0,0,0-.62,0h0v2.39h-2v-2.39h0a3.48,3.48,0,0,0-.63,0,3.35,3.35,0,0,0-.63,0h0v6.13h0a4.6,4.6,0,0,0,.64,0,4.69,4.69,0,0,0,.62,0h0v-2.63h2v2.63h0a4.46,4.46,0,0,0,.63,0,4.56,4.56,0,0,0,.62,0h0v-6.13Z" transform="translate(-390.89 -583.85)"/><path class="cls-1" d="M503.6,597.21H491.76a0,0,0,0,0,0,0v2.52a0,0,0,0,0,0,.05h8.71a.44.44,0,0,1,.31.08s.07.11.07.32v9a.06.06,0,0,0,0,.06h3a.06.06,0,0,0,.06-.06v-11.6A.35.35,0,0,0,503.6,597.21Z" transform="translate(-390.89 -583.85)"/><path class="cls-1" d="M625.3,610.62H610.46a0,0,0,0,0,0,0v2.53a0,0,0,0,0,0,0h12.1c.07,0,.13.09.13.16v5.81a0,0,0,0,0,0,0h3.1a0,0,0,0,0,0,0v-8a.69.69,0,0,0-.15-.46A.55.55,0,0,0,625.3,610.62Z" transform="translate(-390.89 -583.85)"/><path class="cls-1" d="M506.46,613.24v6a0,0,0,0,0,0,0h3a0,0,0,0,0,0,0V606.35h3.05s.06,0,.06,0v-2.52s0,0,0,0l0,0h-3.07v-8.5a0,0,0,0,0,0,0h-3a0,0,0,0,0,0,0v15.38h-8.27v-7.1a0,0,0,0,0,0,0h-3a0,0,0,0,0,0,0v7.1h-4.37a0,0,0,0,0-.05,0v2.52a0,0,0,0,0,.05,0Z" transform="translate(-390.89 -583.85)"/><path class="cls-1" d="M482.56,596a6.24,6.24,0,0,0-8.14,0,4.8,4.8,0,0,0,0,7.31,6.27,6.27,0,0,0,8.14,0,4.78,4.78,0,0,0,0-7.31Zm-2.28,5.56a2.41,2.41,0,0,1-3.57,0h0a2.69,2.69,0,0,1-.75-1.91,2.72,2.72,0,0,1,.75-1.91,2.41,2.41,0,0,1,3.57,0,2.83,2.83,0,0,1,0,3.82Z" transform="translate(-390.89 -583.85)"/><path class="cls-1" d="M464.77,595.2h-3a.05.05,0,0,0-.05,0v6h-5.22a.05.05,0,0,0,0,0v2.61a0,0,0,0,0,0,0h5.26v15.31a0,0,0,0,0,.05,0h3a0,0,0,0,0,0,0v-24S464.79,595.2,464.77,595.2Z" transform="translate(-390.89 -583.85)"/><path class="cls-1" d="M488.91,605.57H468.08a0,0,0,0,0,0,0v2.52a0,0,0,0,0,0,.05h8.71v1.31h-6.46a0,0,0,0,0-.05,0V612a0,0,0,0,0,.05,0h13v1.25h-13a0,0,0,0,0-.05,0V617a2.46,2.46,0,0,0,.45,1.75,1.9,1.9,0,0,0,1.56.53H486.4a0,0,0,0,0,0,0v-2.42s0,0,0,0H473.56a.13.13,0,0,1-.14-.11v-1.12h12.44a.56.56,0,0,0,.46-.18.64.64,0,0,0,.13-.43v-5a.37.37,0,0,0-.34-.4h-5.92v-1.31h8.72a0,0,0,0,0,0-.05v-2.52A0,0,0,0,0,488.91,605.57Z" transform="translate(-390.89 -583.85)"/><path class="cls-1" d="M459.53,608.38l-.14,0a8.15,8.15,0,0,1-3.52-2.62,8.71,8.71,0,0,1-1.87-5.84v-4.62s0,0,0,0h-3.09a.05.05,0,0,0-.05,0v4.62a8.76,8.76,0,0,1-1.86,5.84,8.23,8.23,0,0,1-3.53,2.62l-.14,0a.14.14,0,0,0-.1.08.14.14,0,0,0,0,.12l.12.15,1.42,1.84a.16.16,0,0,0,.2.06,8.13,8.13,0,0,0,3.13-1.91,8.73,8.73,0,0,0,2.35-3,8.73,8.73,0,0,0,2.35,3,8.2,8.2,0,0,0,3.13,1.91.16.16,0,0,0,.2-.06l1.43-1.85.1-.13a.13.13,0,0,0,0-.13S459.6,608.4,459.53,608.38Z" transform="translate(-390.89 -583.85)"/><path class="cls-1" d="M588,610.63a.33.33,0,0,1-.25-.1.49.49,0,0,1-.1-.32V599.82h6.06a0,0,0,0,0,0,0v-2.52a0,0,0,0,0,0,0h-9.11a0,0,0,0,0,0,0v12.58a3.82,3.82,0,0,0,.74,2.58,2.81,2.81,0,0,0,2.22.84h10.07l-.19-2.62Z" transform="translate(-390.89 -583.85)"/><path class="cls-1" d="M595.88,619.22a0,0,0,0,0,0,0h2.87a0,0,0,0,0,0,0s0-13.57,0-13.65h1.61c0,.08,0,13.64,0,13.64a0,0,0,0,0,0,0h2.87a0,0,0,0,0,0,0v-24a0,0,0,0,0,0,0h-2.86a0,0,0,0,0-.05,0V603H598.8c0-.09,0-7.7,0-7.7a0,0,0,0,0,0,0h-2.87a0,0,0,0,0,0,0Z" transform="translate(-390.89 -583.85)"/><path class="cls-1" d="M648.58,597.22H632.49s0,0,0,0v2.52a0,0,0,0,0,0,.05H645.4a.52.52,0,0,1,.28.06.46.46,0,0,1,.09.34v12.09a.06.06,0,0,0,.06.06h3a.06.06,0,0,0,.06-.06V597.59A.4.4,0,0,0,648.58,597.22Z" transform="translate(-390.89 -583.85)"/><path class="cls-1" d="M651,614.65l0,0h-7.84v-9.35s0,0-.05,0h-2.91a0,0,0,0,0,0,0v9.35h-2.06v-9.35s0,0,0,0h-2.9s-.05,0-.05,0v9.35h-5.18a0,0,0,0,0,0,0v2.54a0,0,0,0,0,0,0H651a0,0,0,0,0,0,0v-2.54S651,614.65,651,614.65Z" transform="translate(-390.89 -583.85)"/><path class="cls-1" d="M581.38,605.62H560.52a0,0,0,0,0,0,0v2.48a0,0,0,0,0,0,.05h8.72v1.3H562.8a0,0,0,0,0,0,0V612a0,0,0,0,0,0,0h13v1.26h-13a.05.05,0,0,0,0,0v3.64a2.43,2.43,0,0,0,.61,1.94,2.12,2.12,0,0,0,1.4.39h14.11a0,0,0,0,0,0,0v-2.48a0,0,0,0,0,0,0H566a.12.12,0,0,1-.13-.11v-1h12.43a.51.51,0,0,0,.46-.19.69.69,0,0,0,.13-.43v-5.07a.37.37,0,0,0-.34-.4h-5.91v-1.32l8.71,0,0,0,0,0v-2.47A.06.06,0,0,0,581.38,605.62Z" transform="translate(-390.89 -583.85)"/><path class="cls-1" d="M550.13,597.21H539.46a0,0,0,0,0,0,0v2.53a0,0,0,0,0,0,.05h7.75c0,3.74-.94,6.23-2.78,7.95a13.88,13.88,0,0,1-6.13,3.42l-.14,0a.15.15,0,0,0-.1.1l0,.06a.13.13,0,0,0,0,.09l.09.11,1.27,1.6a.12.12,0,0,0,.15.06,14.57,14.57,0,0,0,7.23-3.9c2.43-2.22,3.66-5.35,3.66-9.85v-1.92a.45.45,0,0,0-.08-.29A.4.4,0,0,0,550.13,597.21Z" transform="translate(-390.89 -583.85)"/><rect class="cls-1" x="163.33" y="11.35" width="3.04" height="24.06" rx="0.04"/><path class="cls-1" d="M533.07,610.62H518.24a0,0,0,0,0,0,0v2.53a0,0,0,0,0,0,0h12.09a.17.17,0,0,1,.14.16v5.81a0,0,0,0,0,0,0h3.1a0,0,0,0,0,0,0v-8a.69.69,0,0,0-.15-.46A.55.55,0,0,0,533.07,610.62Z" transform="translate(-390.89 -583.85)"/><path class="cls-1" d="M528.27,597.21H523v-2s0,0,0,0h-3.17s0,0,0,0v2h-5.18a0,0,0,0,0,0,0v2.52a0,0,0,0,0,0,.05h2a4.82,4.82,0,0,0-.83,2.75,4.64,4.64,0,0,0,1.67,3.6,6.17,6.17,0,0,0,8,0,4.66,4.66,0,0,0,1.66-3.6,4.82,4.82,0,0,0-.83-2.75h2a0,0,0,0,0,0-.05v-2.52A0,0,0,0,0,528.27,597.21Zm-5.06,7.25a2.38,2.38,0,0,1-3.52,0,2.65,2.65,0,0,1-.74-1.88,2.89,2.89,0,0,1,.74-2,2.38,2.38,0,0,1,3.52,0,2.93,2.93,0,0,1,.73,2A2.69,2.69,0,0,1,523.21,604.46Z" transform="translate(-390.89 -583.85)"/><path class="cls-1" d="M536.71,600.28h-3.06v-5s0,0,0,0h-3s0,0,0,0v14a0,0,0,0,0,0,0h3a0,0,0,0,0,0,0v-6h3.06a.05.05,0,0,0,0,0v-2.79S536.73,600.28,536.71,600.28Z" transform="translate(-390.89 -583.85)"/><path class="cls-1" d="M620.5,597.22h-5.23v-2a0,0,0,0,0,0,0h-3.17a0,0,0,0,0,0,0v2h-5.18a0,0,0,0,0,0,0v2.53a0,0,0,0,0,0,0h2a4.85,4.85,0,0,0-.83,2.76,4.64,4.64,0,0,0,1.67,3.6,6.16,6.16,0,0,0,8,0,4.67,4.67,0,0,0,1.67-3.6,4.87,4.87,0,0,0-.83-2.76h2a0,0,0,0,0,0,0v-2.53A0,0,0,0,0,620.5,597.22Zm-5.06,7.24a2.35,2.35,0,0,1-1.77.78,2.3,2.3,0,0,1-1.75-.78,2.65,2.65,0,0,1-.74-1.87,2.93,2.93,0,0,1,.74-2,2.34,2.34,0,0,1,1.75-.78,2.38,2.38,0,0,1,1.77.78,2.94,2.94,0,0,1,.73,2A2.65,2.65,0,0,1,615.44,604.46Z" transform="translate(-390.89 -583.85)"/><path class="cls-1" d="M628.94,600.27h-3.06v-5a0,0,0,0,0,0,0h-3a0,0,0,0,0,0,0v13.93a0,0,0,0,0,0,0h3a0,0,0,0,0,0,0v-6h3.06a0,0,0,0,0,0,0v-2.78A0,0,0,0,0,628.94,600.27Z" transform="translate(-390.89 -583.85)"/><path class="cls-1" d="M580,602.33a10.91,10.91,0,0,1-1.5-.16c-2.82-.52-5.93-2-5.94-5.25v-1.66a0,0,0,0,0-.05,0h-3.33s-.05,0-.05,0v1.66c0,3.28-3.12,4.73-5.94,5.25a10.75,10.75,0,0,1-1.5.16c-.2,0-.11.25-.11.25l1.08,1.83a.27.27,0,0,0,.13.05,11.29,11.29,0,0,0,4.95-1.05,9.47,9.47,0,0,0,2.35-1.66,5.47,5.47,0,0,0,.76-.83,4.6,4.6,0,0,0,.76.83,9.24,9.24,0,0,0,2.34,1.66,11.31,11.31,0,0,0,5,1.05.19.19,0,0,0,.12-.05l1.08-1.83S580.24,602.37,580,602.33Z" transform="translate(-390.89 -583.85)"/><path class="cls-1" d="M437.18,598.78H422.45V584a.19.19,0,0,0-.19-.19H406.21a.19.19,0,0,0-.19.19v14.72H391.28a.2.2,0,0,0-.19.19V610a.19.19,0,0,0,.2.19h4.78V615a.2.2,0,0,0,.19.19h11.07a.2.2,0,0,0,.2-.19V600.28h3.28a.44.44,0,0,0,.3-.15l3.1-4.24,3.07,4.21a.47.47,0,0,0,.3.18H421V615a.2.2,0,0,0,.2.19h16a.19.19,0,0,0,.19-.19v-6.1a.18.18,0,0,0-.19-.19H432.4v-3.47h4.78a.19.19,0,0,0,.19-.2V599A.17.17,0,0,0,437.18,598.78ZM406,613.7h-8.44v-4.78a.19.19,0,0,0-.19-.19H392.6v-8.45H406ZM421,598.78h-2.82l-3.81-5.29a.13.13,0,0,0-.22,0l-3.87,5.29h-2.7V585.36H421Zm14.92,5h-4.78a.19.19,0,0,0-.19.19V610a.18.18,0,0,0,.19.19h4.78v3.47H422.45V600.28h13.42Z" transform="translate(-390.89 -583.85)"/></svg>